<?xml version="1.0" encoding="UTF-8" standalone="no"?>
<!-- Created with Inkscape (http://www.inkscape.org/) -->

<svg
   width="95.096642mm"
   height="55.324627mm"
   viewBox="0 0 95.09664 55.324625"
   version="1.1"
   id="svg1"
   inkscape:export-filename="brush.svg"
   inkscape:export-xdpi="96"
   inkscape:export-ydpi="96"
   inkscape:export-batch-path="/home/chris/git/eduskript/src/components/annotations"
   inkscape:export-batch-name="brush"
   inkscape:version="1.4.2 (ebf0e940d0, 2025-05-08)"
   sodipodi:docname="brush_inkscape.svg"
   xmlns:inkscape="http://www.inkscape.org/namespaces/inkscape"
   xmlns:sodipodi="http://sodipodi.sourceforge.net/DTD/sodipodi-0.dtd"
   xmlns="http://www.w3.org/2000/svg"
   xmlns:svg="http://www.w3.org/2000/svg">
  <sodipodi:namedview
     id="namedview1"
     pagecolor="#ffffff"
     bordercolor="#000000"
     borderopacity="0.25"
     inkscape:showpageshadow="2"
     inkscape:pageopacity="0.0"
     inkscape:pagecheckerboard="0"
     inkscape:deskcolor="#d1d1d1"
     inkscape:document-units="mm"
     inkscape:zoom="1.3106664"
     inkscape:cx="432.98585"
     inkscape:cy="292.21776"
     inkscape:window-width="1813"
     inkscape:window-height="1387"
     inkscape:window-x="20"
     inkscape:window-y="20"
     inkscape:window-maximized="0"
     inkscape:current-layer="layer1">
    <inkscape:page
       x="0"
       y="0"
       width="95.096642"
       height="55.324623"
       id="page2"
       margin="0.10836571 0 0.14900187"
       bleed="0"
       inkscape:label="thin" />
  </sodipodi:namedview>
  <defs
     id="defs1">
    <inkscape:path-effect
       effect="powerstroke"
       message=""
       id="path-effect1-7"
       is_visible="true"
       lpeversion="1.3"
       scale_width="0.4"
       interpolator_type="CentripetalCatmullRom"
       interpolator_beta="0.2"
       start_linecap_type="zerowidth"
       end_linecap_type="zerowidth"
       offset_points="0.015640063,-9.0755346 | 0.51169833,-6.8997952 | 0.80387331,-1.8059216"
       linejoin_type="round"
       miter_limit="4"
       not_jump="false"
       sort_points="true" />
  </defs>
  <g
     inkscape:label="Layer 1"
     inkscape:groupmode="layer"
     id="layer1"
     transform="translate(-174.15734,-95.579715)">
    <path
       style="fill:#1a1a1a;fill-rule:nonzero;stroke:none;stroke-width:0.264583"
       d="m 71.333367,127.80793 c -0.09039,-0.71642 -1.631095,-2.20672 -0.47749,-4.30774 1.274488,-2.32118 5.91585,-6.3558 11.842934,-8.9901 4.282412,-1.90332 8.816325,-2.92508 13.481984,-2.92833 4.283885,-0.003 8.183105,0.84674 11.731655,2.0304 3.83818,1.28028 7.55253,3.0736 10.18155,4.2999 0.31492,0.14689 0.61916,0.28832 0.91697,0.42569 2.9588,1.36477 5.76836,2.80398 8.72715,4.16875 3.37998,1.55705 6.60587,2.83749 9.97922,3.61349 1.54158,0.35462 3.10226,0.60037 4.6925,0.71274 2.05948,0.14554 4.29242,0.0892 6.68365,-0.25382 5.56552,-0.79828 10.23704,-2.90314 13.30454,-4.47068 -2.95681,1.72913 -7.58131,4.04309 -13.15826,5.27357 -2.4189,0.5337 -4.69228,0.79788 -6.84646,0.89558 -1.65795,0.0752 -3.31135,0.0625 -4.97671,-0.0379 -3.65867,-0.22052 -7.26634,-0.85626 -11.06026,-1.84893 -3.1466,-0.8233 -6.15379,-1.81715 -9.40104,-2.93006 -0.30402,-0.1042 -0.61745,-0.20947 -0.93815,-0.31488 -2.8077,-0.92285 -6.31757,-1.91237 -9.84922,-2.43217 -3.18907,-0.46937 -6.287271,-0.54994 -9.450244,-0.1101 -3.413841,0.47473 -6.637225,1.51626 -9.954676,3.00699 -4.60661,2.07003 -9.024978,4.98097 -11.377971,5.56438 -2.145122,0.53187 -3.359827,-1.15998 -4.051672,-1.36681 z"
       id="path1-5"
       sodipodi:nodetypes="cc"
       transform="translate(105.10614,0.72993666)"
       inkscape:original-d="m 71.333367,127.80793 c 38.456243,-32.582487 53.114763,15.07151 91.064663,-5.6997"
       inkscape:path-effect="#path-effect1-7" />
  </g>
</svg>
