<?xml version="1.0" encoding="UTF-8" standalone="no"?>
<!-- Created with Inkscape (http://www.inkscape.org/) -->

<svg
   width="95.096642mm"
   height="55.324627mm"
   viewBox="0 0 95.09664 55.324625"
   version="1.1"
   id="svg1"
   inkscape:export-filename="brush.svg"
   inkscape:export-xdpi="96"
   inkscape:export-ydpi="96"
   inkscape:export-batch-path="/home/chris/git/eduskript/src/components/annotations"
   inkscape:export-batch-name="brush"
   inkscape:version="1.4.2 (ebf0e940d0, 2025-05-08)"
   sodipodi:docname="brush_inkscape.svg"
   xmlns:inkscape="http://www.inkscape.org/namespaces/inkscape"
   xmlns:sodipodi="http://sodipodi.sourceforge.net/DTD/sodipodi-0.dtd"
   xmlns="http://www.w3.org/2000/svg"
   xmlns:svg="http://www.w3.org/2000/svg">
  <sodipodi:namedview
     id="namedview1"
     pagecolor="#ffffff"
     bordercolor="#000000"
     borderopacity="0.25"
     inkscape:showpageshadow="2"
     inkscape:pageopacity="0.0"
     inkscape:pagecheckerboard="0"
     inkscape:deskcolor="#d1d1d1"
     inkscape:document-units="mm"
     inkscape:zoom="0.77643587"
     inkscape:cx="453.3536"
     inkscape:cy="123.64189"
     inkscape:window-width="1268"
     inkscape:window-height="671"
     inkscape:window-x="20"
     inkscape:window-y="20"
     inkscape:window-maximized="0"
     inkscape:current-layer="layer1">
    <inkscape:page
       x="0"
       y="0"
       width="95.096642"
       height="55.324623"
       id="page2"
       margin="0.10836571 0 0.14900187"
       bleed="0"
       inkscape:label="thin" />
  </sodipodi:namedview>
  <defs
     id="defs1">
    <inkscape:path-effect
       effect="powerstroke"
       message=""
       id="path-effect1-7"
       is_visible="true"
       lpeversion="1.3"
       scale_width="0.4"
       interpolator_type="CentripetalCatmullRom"
       interpolator_beta="0.2"
       start_linecap_type="zerowidth"
       end_linecap_type="zerowidth"
       offset_points="0.011054817,-5.1374055 | 0.51717037,-2.5176544 | 0.80387331,-1.8059216"
       linejoin_type="round"
       miter_limit="4"
       not_jump="false"
       sort_points="true" />
  </defs>
  <g
     inkscape:label="Layer 1"
     inkscape:groupmode="layer"
     id="layer1"
     transform="translate(-174.15734,-95.579715)">
    <path
       style="fill:#1a1a1a;fill-rule:nonzero;stroke:none;stroke-width:0.264583"
       d="m 75.370753,132.24906 c -0.05042,-0.49803 -0.986797,-1.2244 -0.292911,-3.06646 1.072339,-2.84673 6.253812,-9.93559 12.929928,-14.17427 2.307294,-1.46491 4.744039,-2.58094 7.285373,-3.23988 2.329562,-0.60403 4.638312,-0.79605 6.915027,-0.6065 2.19582,0.18282 4.27668,0.71298 6.24932,1.48153 1.98531,0.77349 3.84076,1.78052 5.56849,2.88669 3.72614,2.38565 7.36834,5.61231 9.89272,7.7672 0.45426,0.38777 0.8848,0.75313 1.3033,1.10332 2.94516,2.46441 5.44662,4.53443 7.98903,6.26361 1.55565,1.05805 3.03375,1.92084 4.46996,2.57304 1.50554,0.68368 2.9499,1.12872 4.36031,1.32125 1.25763,0.17167 2.50323,0.14465 3.7551,-0.1057 0.20165,-0.0403 0.40636,-0.087 0.61409,-0.14067 1.45274,-0.37532 3.00238,-1.07977 4.65092,-2.27132 1.72122,-1.24407 3.39199,-2.90518 5.01413,-4.91341 2.2711,-2.81165 4.13443,-5.92573 5.31314,-8.0473 -1.08663,2.161 -2.79124,5.38322 -4.90188,8.35865 -1.50652,2.12378 -3.10172,3.95955 -4.80538,5.39453 -1.63899,1.38052 -3.26308,2.29279 -4.87313,2.82362 -0.22962,0.0757 -0.4573,0.14309 -0.6829,0.20268 -1.40797,0.37191 -2.83378,0.46734 -4.27666,0.31789 -1.61344,-0.16713 -3.23232,-0.63833 -4.87324,-1.35481 -1.5627,-0.68233 -3.14037,-1.58444 -4.76845,-2.66099 -2.66267,-1.76065 -5.23622,-3.82668 -8.25353,-6.19658 -0.42515,-0.33393 -0.87682,-0.68285 -1.34609,-1.03848 -2.73176,-2.07026 -6.43187,-4.66844 -10.22006,-6.44666 -1.71111,-0.80322 -3.44483,-1.44604 -5.19598,-1.86216 -1.73318,-0.41185 -3.43285,-0.5898 -5.12069,-0.51526 -1.73985,0.0768 -3.448161,0.42101 -5.160588,1.03377 -1.877005,0.67166 -3.731619,1.65641 -5.595996,2.92247 -5.396748,3.66483 -10.587344,9.88902 -12.956213,11.60018 -1.526366,1.10257 -2.48319,0.47607 -2.98714,0.59002 z"
       id="path1-5"
       sodipodi:nodetypes="cc"
       inkscape:path-effect="#path-effect1-7"
       inkscape:original-d="M 75.370753,132.24906 C 116.24943,75.442249 133.53225,171.74675 161.38868,119.08019"
       transform="translate(105.10614,0.72993666)" />
  </g>
</svg>
