<?xml version="1.0" encoding="UTF-8" standalone="no"?>
<!-- Created with Inkscape (http://www.inkscape.org/) -->

<svg
   width="95.096642mm"
   height="55.324635mm"
   viewBox="0 0 95.09664 55.324633"
   version="1.1"
   id="svg1"
   inkscape:export-filename="brush.svg"
   inkscape:export-xdpi="96"
   inkscape:export-ydpi="96"
   inkscape:export-batch-path="/home/chris/git/eduskript/src/components/annotations"
   inkscape:export-batch-name="brush"
   inkscape:version="1.4.2 (ebf0e940d0, 2025-05-08)"
   sodipodi:docname="brush_inkscape.svg"
   xmlns:inkscape="http://www.inkscape.org/namespaces/inkscape"
   xmlns:sodipodi="http://sodipodi.sourceforge.net/DTD/sodipodi-0.dtd"
   xmlns="http://www.w3.org/2000/svg"
   xmlns:svg="http://www.w3.org/2000/svg">
  <sodipodi:namedview
     id="namedview1"
     pagecolor="#ffffff"
     bordercolor="#000000"
     borderopacity="0.25"
     inkscape:showpageshadow="2"
     inkscape:pageopacity="0.0"
     inkscape:pagecheckerboard="0"
     inkscape:deskcolor="#d1d1d1"
     inkscape:document-units="mm"
     inkscape:zoom="0.77643587"
     inkscape:cx="453.3536"
     inkscape:cy="123.64189"
     inkscape:window-width="1268"
     inkscape:window-height="671"
     inkscape:window-x="20"
     inkscape:window-y="20"
     inkscape:window-maximized="0"
     inkscape:current-layer="layer1">
    <inkscape:page
       x="0"
       y="0"
       width="95.096642"
       height="55.324631"
       id="page1"
       margin="0.10836571 0 0.14900187"
       bleed="0"
       inkscape:label="thick" />
  </sodipodi:namedview>
  <defs
     id="defs1">
    <inkscape:path-effect
       effect="powerstroke"
       message=""
       id="path-effect1"
       is_visible="true"
       lpeversion="1.3"
       scale_width="1"
       interpolator_type="CentripetalCatmullRom"
       interpolator_beta="0.2"
       start_linecap_type="zerowidth"
       end_linecap_type="zerowidth"
       offset_points="0.032229196,-7.7333777 | 0.51600973,-5.5922461 | 0.80387331,-1.8059216"
       linejoin_type="round"
       miter_limit="4"
       not_jump="false"
       sort_points="true" />
  </defs>
  <g
     inkscape:label="Layer 1"
     inkscape:groupmode="layer"
     id="layer1"
     transform="translate(-69.060696,-95.579715)">
    <path
       style="fill:#1a1a1a;fill-rule:nonzero;stroke:none;stroke-width:0.264583"
       d="m 75.370753,132.24906 c -0.193717,-0.83413 -1.226998,-1.95829 -1.957184,-3.57737 -0.725799,-1.60935 -1.157083,-3.75702 -0.102628,-6.40019 1.388693,-3.48098 5.443911,-8.80615 11.192127,-12.61671 2.6686,-1.76906 5.670629,-3.19591 8.937951,-4.03498 2.965738,-0.76161 5.968221,-0.99213 8.940721,-0.69504 2.83856,0.28371 5.4687,1.02932 7.87867,2.05919 2.40095,1.02602 4.5535,2.32086 6.46789,3.68143 4.04338,2.87367 7.72087,6.59992 10.1358,8.97214 0.4026,0.39548 0.78404,0.76885 1.15599,1.12889 2.73931,2.65169 5.0345,5.08744 7.0992,7.05169 1.27638,1.21429 2.45596,2.24908 3.59761,3.09133 1.19014,0.87803 2.34966,1.5544 3.52284,1.98097 1.05126,0.38224 2.14809,0.57636 3.30992,0.50739 0.18715,-0.0111 0.37864,-0.0288 0.57439,-0.0539 1.36984,-0.17547 2.9018,-0.70485 4.57662,-1.76407 1.74992,-1.10671 3.47202,-2.67531 5.15398,-4.61956 2.35848,-2.72624 4.28605,-5.78858 5.53403,-7.88007 -1.01593,2.18602 -2.65899,5.46985 -4.681,8.52588 -1.44551,2.18471 -2.99203,4.11938 -4.66551,5.68838 -1.61493,1.51409 -3.25295,2.5993 -4.94745,3.33087 -0.24161,0.10431 -0.48249,0.20062 -0.72259,0.28943 -1.49868,0.5544 -3.06418,0.86837 -4.72184,0.93098 -1.85091,0.0699 -3.75504,-0.1762 -5.7107,-0.69508 -1.86062,-0.49367 -3.7399,-1.22658 -5.64081,-2.1427 -3.10709,-1.49744 -6.16129,-3.42665 -9.32176,-5.55314 -0.4219,-0.28387 -0.86251,-0.57513 -1.315,-0.86828 -2.97023,-1.92426 -6.55643,-4.01116 -9.97698,-5.24171 -1.54162,-0.55459 -2.96905,-0.90925 -4.29658,-1.06742 -1.30716,-0.15574 -2.45369,-0.11179 -3.49134,0.0624 -1.05452,0.17701 -2.088055,0.50281 -3.134895,0.94523 -1.189435,0.50269 -2.482326,1.19302 -3.943417,2.12737 -3.146642,2.01225 -6.85143,5.26303 -9.628091,6.7632 -4.151696,2.24308 -8.115043,-0.0891 -9.819964,0.0735 z"
       id="path1"
       sodipodi:nodetypes="cc"
       inkscape:path-effect="#path-effect1"
       inkscape:original-d="M 75.370753,132.24906 C 116.24943,75.442249 133.53225,171.74675 161.38868,119.08019" />
  </g>
</svg>
